# xmcd CD database file
#
# Track frame offsets:
#	183
#	71488
#	115608
#	155323
#	182715
#	203185
#	239450
#
# Disc length: 3855 seconds
#
# Revision: 2
# Processed by: cddbd v1.5.2PL0 Copyright (c) Steve Scherf et al.
# Submitted via: CDex 1.51
#
DISCID=570f0d07
DTITLE=Ray Russell, Scarlet Rivera and Joan Bibiloni - Live at the B&W Montreux Music Festival 1988
DYEAR=1988
DGENRE=Jazz
TTITLE0=Ray Russell - A Table Near the Band
TTITLE1=Ray Russell - Avian
TTITLE2=Ray Russell - Pan Piper
TTITLE3=Scarlet Rivera - Journey with an Angel
TTITLE4=Scarlet Rivera - Return of Avalon
TTITLE5=Joan Bibiloni - Sagitari
TTITLE6=Loan Bibiloni - Marina
EXTD=YEAR: 1988
EXTT0=
EXTT1=
EXTT2=
EXTT3=
EXTT4=
EXTT5=
EXTT6=
PLAYORDER=
